# This file uses centimeters as units for non-parametric coordinates.

mtllib Carpet_Mesh.mtl
g default
v -34.026123 0.000000 47.675083
v 34.774319 0.000000 47.675083
v -34.026123 0.000000 -49.306759
v 34.774319 0.000000 -49.306759
vt 0.159739 0.027261
vt 0.847743 0.027261
vt 0.847743 0.993068
vt 0.159739 0.993068
vn 0.000000 1.000000 0.000000
vn 0.000000 1.000000 0.000000
vn 0.000000 1.000000 0.000000
vn 0.000000 1.000000 0.000000
s off
g Carpet_Mesh:Mesh
usemtl lambert2SG
f 1/1/1 2/2/2 4/3/3 3/4/4
